<svg viewBox="0 0 48 48" width="48" height="48" xmlns="http://www.w3.org/2000/svg">
  <defs>
    <linearGradient id="tile" x1="0" y1="0" x2="48" y2="48" gradientUnits="userSpaceOnUse">
      <stop stop-color="#17181d"/>
      <stop offset="1" stop-color="#0b0b0c"/>
    </linearGradient>
    <linearGradient id="l" x1="10" y1="10" x2="26" y2="40" gradientUnits="userSpaceOnUse">
      <stop stop-color="#63A0FF"/>
      <stop offset="1" stop-color="#3E6FE8"/>
    </linearGradient>
    <linearGradient id="r" x1="38" y1="10" x2="24" y2="42" gradientUnits="userSpaceOnUse">
      <stop stop-color="#CFC7FF"/>
      <stop offset="1" stop-color="#6E5BF0"/>
    </linearGradient>
  </defs>
  <rect width="48" height="48" rx="11" fill="url(#tile)"/>
  <path d="M10.2 11.4c-1.5-.9-3.3.3-3 2l.8 4.7c.2 1.3 1 2.5 2.1 3.2l13.2 14.9-9.5-22.4a4.9 4.9 0 0 0-3.6-2.4Z" fill="url(#l)"/>
  <path d="M9 10.8 23.3 36.2 20 20.5c-.3-1.4-1.2-2.6-2.5-3.3L9 10.8Z" fill="url(#l)"/>
  <path d="M39.8 10.6c1.6-.8 3.4.5 3 2.2l-3.2 14.7a7.6 7.6 0 0 1-2.6 4.2l-8.6 7.2c-1.7 1.4-4.2 0-4-2.2l1.9-16.5c.2-1.6 1.1-3 2.5-3.8l11-5.8Z" fill="url(#r)"/>
</svg>
